<svg xmlns="http://www.w3.org/2000/svg" viewBox="0 0 1017.373 340.201"><defs><clipPath id="prefix__clip-path"><path id="prefix__Path_9412" fill="#a28d8d" d="M0 0l1000 161H0z" data-name="Path 9412" transform="translate(0 639)"/></clipPath><style>.prefix__cls-3,.prefix__cls-4{fill:none;stroke:#fff;stroke-linecap:round}.prefix__cls-3{stroke-linejoin:round}</style></defs><g id="prefix__Group_26605" data-name="Group 26605" opacity=".1" transform="translate(17.373 -459.799)"><path id="prefix__Path_9362" d="M-7248-5502.5l88.176-99.336 48.531 49.128" class="prefix__cls-3" data-name="Path 9362" transform="rotate(9 -42128.857 43592.811)"/><path id="prefix__Path_9363" d="M-6576.238-5420.722l-89.151-65.35-33.595 33.595-17.961-17.961-17.961 17.961h-31.934l-53.129-53.129-47.5 47.5-91.026-91.026-43.524 43.524-78.071-78.071-47.7 47.7 71.488 19.82" class="prefix__cls-3" data-name="Path 9363" transform="rotate(9 -42128.857 43592.811)"/><path id="prefix__Path_9364" d="M-7248-5537.6l23.59-23.59 15.055 15.216 77.671 90.641 4.074-80.737-32.388-65.66-14.892 95.838-44.72-28.43-26.264 60.413 114.19 18.754-64.287 18.688-42.037 12.22" class="prefix__cls-3" data-name="Path 9364" transform="rotate(9 -42128.857 43592.811)"/><path id="prefix__Path_9365" d="M-6847.015-5479.546l-29.47-29.471L-6897.5-5488l-2.784 61.485" class="prefix__cls-3" data-name="Path 9365" transform="rotate(9 -42128.857 43592.811)"/><path id="prefix__Path_9366" d="M-6867.443-5458.27l-32.478 32.478-41.55-41.55-41.549 41.55" class="prefix__cls-3" data-name="Path 9366" transform="rotate(9 -42128.857 43592.811)"/><path id="prefix__Path_9367" d="M-7001.76-5505.914l-60.111 60.111-16.76-16.76-22.5-22.5-59.159 59.5" class="prefix__cls-3" data-name="Path 9367" transform="rotate(9 -42128.857 43592.811)"/><path id="prefix__Path_9370" d="M-7080-5005.2l24.109 66.731-45.085 31.534 82.754-4.756-37.669-26.777" class="prefix__cls-3" data-name="Path 9370" transform="rotate(9 -38456.763 43881.81)"/><path id="prefix__Path_9371" d="M-7100.972-4906.939l12.261 59.253 26.984-19.974 31.473 19.974 132.721-62.175-104.757-17.622-27.964 79.8 76.021-71.63" class="prefix__cls-3" data-name="Path 9371" transform="rotate(9 -38456.763 43881.81)"/><path id="prefix__Path_9372" d="M-6876.605-4930.736l17.881 41.713" class="prefix__cls-4" data-name="Path 9372" transform="rotate(9 -38456.763 43881.81)"/><path id="prefix__Path_9373" d="M-6820.116-4927.482l-55.22 80.092 108.69-26.627 10.859 26.528 56.721-26.952-35.829-.051 24.158-11.656" class="prefix__cls-3" data-name="Path 9373" transform="rotate(9 -38456.763 43881.81)"/><path id="prefix__Path_9374" d="M-6665.385-4907.9l56.578 60.168-108.435-17.7 73.21-19.153" class="prefix__cls-3" data-name="Path 9374" transform="rotate(9 -38456.763 43881.81)"/><path id="prefix__Path_9362-2" d="M-7245.43-5504.91l85.605-96.922 48.531 49.128" class="prefix__cls-3" data-name="Path 9362" transform="rotate(9 -42158.12 43558.543)"/><path id="prefix__Path_9363-2" d="M-6580.1-5425.73l-85.817-60.625-33.557 33.5-17.941-17.909-17.941 17.909h-31.9l-53.068-52.975-47.449 47.365-90.923-90.763-43.475 43.4-77.982-77.845-47.647 47.563 71.407 19.763" class="prefix__cls-3" data-name="Path 9363" transform="rotate(9 -42158.12 43558.543)"/><path id="prefix__Path_9364-2" d="M-7250.153-5535.61l25.743-25.579 15.055 15.216 77.671 90.641 4.074-80.737-32.388-65.66-14.892 95.838-44.72-28.43-21.565 55.391 109.491 23.776-101.592 26.1" class="prefix__cls-3" data-name="Path 9364" transform="rotate(9 -42158.12 43558.543)"/><path id="prefix__Path_9365-2" d="M-6847.015-5479.546l-29.47-29.471L-6897.5-5488l-2.784 61.485" class="prefix__cls-3" data-name="Path 9365" transform="rotate(9 -42158.12 43558.543)"/><path id="prefix__Path_9366-2" d="M-6867.443-5458.27l-32.478 32.478-41.55-41.55-41.549 41.55" class="prefix__cls-3" data-name="Path 9366" transform="rotate(9 -42158.12 43558.543)"/><path id="prefix__Path_9367-2" d="M-7001.76-5505.914l-60.111 60.111-16.76-16.76-22.5-22.5-59.159 59.5" class="prefix__cls-3" data-name="Path 9367" transform="rotate(9 -42158.12 43558.543)"/><path id="prefix__Path_9370-2" d="M-7080-5005.2l24.109 66.731-45.085 31.534 82.754-4.756-37.669-26.777" class="prefix__cls-3" data-name="Path 9370" transform="rotate(9 -38486.027 43847.542)"/><path id="prefix__Path_9371-2" d="M-7100.972-4906.939l12.261 59.253 26.984-19.974 31.473 19.974 132.721-62.175-104.757-17.622-27.964 79.8 76.021-71.63" class="prefix__cls-3" data-name="Path 9371" transform="rotate(9 -38486.027 43847.542)"/><path id="prefix__Path_9372-2" d="M-6876.605-4930.736l17.881 41.713" class="prefix__cls-4" data-name="Path 9372" transform="rotate(9 -38486.027 43847.542)"/><path id="prefix__Path_9373-2" d="M-6820.116-4927.482l-55.22 80.092 108.69-26.627 10.859 26.528 56.721-26.952-35.829-.051 24.158-11.656" class="prefix__cls-3" data-name="Path 9373" transform="rotate(9 -38486.027 43847.542)"/><path id="prefix__Path_9374-2" d="M-6665.385-4907.9l56.578 60.168-108.435-17.7 73.21-19.153" class="prefix__cls-3" data-name="Path 9374" transform="rotate(9 -38486.027 43847.542)"/><g id="prefix__Mask_Group_626" clip-path="url(#prefix__clip-path)" data-name="Mask Group 626"><g id="prefix__Group_25720" data-name="Group 25720" transform="rotate(9 -4072.493 300.593)"><path id="prefix__Path_7473" d="M0 0l78.744 7.957" class="prefix__cls-4" data-name="Path 7473" transform="translate(1320.651 .125)"/><path id="prefix__Path_7484" d="M78.743 0L0 7.957" class="prefix__cls-4" data-name="Path 7484" transform="translate(.606 .125)"/><path id="prefix__Path_7462" d="M0 0l182.529 424.273" class="prefix__cls-4" data-name="Path 7462" transform="translate(726.882 .123)"/><path id="prefix__Path_7487" d="M182.529 0L0 424.273" class="prefix__cls-4" data-name="Path 7487" transform="translate(490.59 .123)"/><path id="prefix__Path_7463" d="M0 0l547.688 424.775" class="prefix__cls-4" data-name="Path 7463" transform="translate(780.927 .123)"/><path id="prefix__Path_7486" d="M547.688 0L0 424.775" class="prefix__cls-4" data-name="Path 7486" transform="translate(71.386 .123)"/><path id="prefix__Path_7464" d="M0 0l564.027 262.358" class="prefix__cls-4" data-name="Path 7464" transform="translate(835.098 .155)"/><path id="prefix__Path_7475" d="M564.028 0L0 262.358" class="prefix__cls-4" data-name="Path 7475" transform="translate(.875 .155)"/><path id="prefix__Path_7465" d="M0 0l509.909 169.473" class="prefix__cls-4" data-name="Path 7465" transform="translate(889.004 .123)"/><path id="prefix__Path_7476" d="M509.91 0L0 169.473" class="prefix__cls-4" data-name="Path 7476" transform="translate(1.087 .123)"/><path id="prefix__Path_7466" d="M456.453 117.8L0 0" class="prefix__cls-4" data-name="Path 7466" transform="translate(942.561 .046)"/><path id="prefix__Path_7477" d="M0 117.8L456.453 0" class="prefix__cls-4" data-name="Path 7477" transform="translate(.986 .046)"/><path id="prefix__Path_7467" d="M0 0l400.608 85.441" class="prefix__cls-4" data-name="Path 7467" transform="translate(997.958 .046)"/><path id="prefix__Path_7478" d="M400.608 0L0 85.441" class="prefix__cls-4" data-name="Path 7478" transform="translate(1.435 .047)"/><path id="prefix__Path_7468" d="M0 0l347.938 61.888" class="prefix__cls-4" data-name="Path 7468" transform="translate(1052.062 .046)"/><path id="prefix__Path_7479" d="M347.938 0L0 61.888" class="prefix__cls-4" data-name="Path 7479" transform="translate(0 .046)"/><path id="prefix__Path_7469" d="M0 0l293.541 45.84" class="prefix__cls-4" data-name="Path 7469" transform="translate(1105.78 .046)"/><path id="prefix__Path_7480" d="M293.541 0L0 45.84" class="prefix__cls-4" data-name="Path 7480" transform="translate(.679 .047)"/><path id="prefix__Path_7470" d="M0 0l240.009 32.865" class="prefix__cls-4" data-name="Path 7470" transform="translate(1159.857 .155)"/><path id="prefix__Path_7481" d="M240.009 0L0 32.865" class="prefix__cls-4" data-name="Path 7481" transform="translate(.132 .155)"/><path id="prefix__Path_7471" d="M0 0l185.7 22.895" class="prefix__cls-4" data-name="Path 7471" transform="translate(1213.989 .022)"/><path id="prefix__Path_7482" d="M185.7 0L0 22.895" class="prefix__cls-4" data-name="Path 7482" transform="translate(.311 .022)"/><path id="prefix__Path_7472" d="M0 0l132.872 14.724" class="prefix__cls-4" data-name="Path 7472" transform="translate(1266.526)"/><path id="prefix__Path_7483" d="M132.872 0L0 14.724" class="prefix__cls-4" data-name="Path 7483" transform="translate(.602)"/><path id="prefix__Line_1" d="M0 0h1399.11" class="prefix__cls-4" data-name="Line 1" transform="translate(.45 394.449)"/><path id="prefix__Line_2" d="M0 0h1399.11" class="prefix__cls-4" data-name="Line 2" transform="translate(.45 337.118)"/><path id="prefix__Line_3" d="M0 0h1399.11" class="prefix__cls-4" data-name="Line 3" transform="translate(.45 286.275)"/><path id="prefix__Line_4" d="M0 0h1399.11" class="prefix__cls-4" data-name="Line 4" transform="translate(.45 241.924)"/><path id="prefix__Line_5" d="M0 0h1399.11" class="prefix__cls-4" data-name="Line 5" transform="translate(.45 202.981)"/><path id="prefix__Line_6" d="M0 0h1399.11" class="prefix__cls-4" data-name="Line 6" transform="translate(.45 169.446)"/><path id="prefix__Line_7" d="M0 0h1399.11" class="prefix__cls-4" data-name="Line 7" transform="translate(.45 140.24)"/><path id="prefix__Line_9" d="M0 0h1399.11" class="prefix__cls-4" data-name="Line 9" transform="translate(.45 93.726)"/><path id="prefix__Line_10" d="M0 0h1399.11" class="prefix__cls-4" data-name="Line 10" transform="translate(.45 76.418)"/><path id="prefix__Line_11" d="M0 0h1399.11" class="prefix__cls-4" data-name="Line 11" transform="translate(.45 61.273)"/><path id="prefix__Line_12" d="M0 0h1399.11" class="prefix__cls-4" data-name="Line 12" transform="translate(.45 48.292)"/><path id="prefix__Line_13" d="M0 0h1399.11" class="prefix__cls-4" data-name="Line 13" transform="translate(.45 38.557)"/><path id="prefix__Line_14" d="M0 0h1399.11" class="prefix__cls-4" data-name="Line 14" transform="translate(.45 29.903)"/><path id="prefix__Line_15" d="M0 0h1399.11" class="prefix__cls-4" data-name="Line 15" transform="translate(.45 23.412)"/><path id="prefix__Line_16" d="M0 0h1399.11" class="prefix__cls-4" data-name="Line 16" transform="translate(.45 16.922)"/><path id="prefix__Line_17" d="M0 0h1399.11" class="prefix__cls-4" data-name="Line 17" transform="translate(.45 10.432)"/><path id="prefix__Path_9368" d="M0 0h1399.11" class="prefix__cls-4" data-name="Path 9368" transform="translate(.45 5.023)"/><path id="prefix__Path_9369" d="M0 0h1399.11" class="prefix__cls-4" data-name="Path 9369" transform="translate(.45 .023)"/></g></g></g></svg>