<svg xmlns="http://www.w3.org/2000/svg" xmlns:xlink="http://www.w3.org/1999/xlink" viewBox="0 0 804 936"><defs><linearGradient id="linear-gradient" x1="1" x2="0" y1="0" y2="1" gradientUnits="objectBoundingBox"><stop offset="0" stop-color="#b6509e"/><stop offset="1" stop-color="#2ebac6"/></linearGradient><linearGradient id="linear-gradient-2" x1="0" x2="1.359" y1=".858" y2=".203" xlink:href="#linear-gradient"/><clipPath id="clip-path"><path id="Path_9887" d="M0-61.271h768v900L0 710.618z" class="cls-1" data-name="Path 9887" transform="translate(1833 370.271)"/></clipPath><filter id="Path_9353" width="804" height="936" x="0" y="0" filterUnits="userSpaceOnUse"><feOffset dy="6"/><feGaussianBlur result="blur" stdDeviation="6"/><feFlood flood-opacity=".161"/><feComposite in2="blur" operator="in"/><feComposite in="SourceGraphic"/></filter><style>.cls-1{fill:url(#linear-gradient)}.cls-4{opacity:.5}.cls-5,.cls-6{fill:none;stroke:#fff;stroke-linecap:round;stroke-width:.5px}.cls-6{stroke-linejoin:round}</style></defs><g id="Group_26294" data-name="Group 26294" transform="translate(18 12)"><path id="Path_9356" fill="url(#linear-gradient-2)" d="M0 639.833V700l393.943-30.174z" data-name="Path 9356" transform="translate(0 128)"/><g filter="url(#Path_9353)" transform="translate(-18 -12)"><path id="Path_9353-2" d="M0-61.271h768v900L0 710.618z" class="cls-1" data-name="Path 9353" transform="translate(18 73.27)"/></g><g id="Mask_Group_675" clip-path="url(#clip-path)" data-name="Mask Group 675" opacity=".5" transform="translate(-1833 -309)"><g id="Group_26013" data-name="Group 26013" transform="translate(1788 330)"><g id="Group_25720" class="cls-4" data-name="Group 25720" transform="translate(45 658.667)"><path id="Path_7473" d="M0 0l43.2 7.957" class="cls-5" data-name="Path 7473" transform="translate(724.472 .125)"/><path id="Path_7484" d="M43.2 0L0 7.957" class="cls-5" data-name="Path 7484" transform="translate(.333 .125)"/><path id="Path_7462" d="M0 0l100.13 424.273" class="cls-5" data-name="Path 7462" transform="translate(398.746 .123)"/><path id="Path_7487" d="M100.13 0L0 424.273" class="cls-5" data-name="Path 7487" transform="translate(269.124 .123)"/><path id="Path_7463" d="M0 0l300.446 424.775" class="cls-5" data-name="Path 7463" transform="translate(428.394 .123)"/><path id="Path_7486" d="M300.446 0L0 424.775" class="cls-5" data-name="Path 7486" transform="translate(39.16 .123)"/><path id="Path_7464" d="M0 0l309.409 262.358" class="cls-5" data-name="Path 7464" transform="translate(458.111 .155)"/><path id="Path_7475" d="M309.41 0L0 262.358" class="cls-5" data-name="Path 7475" transform="translate(.48 .155)"/><path id="Path_7465" d="M0 0l279.722 169.473" class="cls-5" data-name="Path 7465" transform="translate(487.682 .123)"/><path id="Path_7476" d="M279.722 0L0 169.473" class="cls-5" data-name="Path 7476" transform="translate(.596 .123)"/><path id="Path_7466" d="M250.4 117.8L0 0" class="cls-5" data-name="Path 7466" transform="translate(517.062 .046)"/><path id="Path_7477" d="M0 117.8L250.4 0" class="cls-5" data-name="Path 7477" transform="translate(.541 .046)"/><path id="Path_7467" d="M0 0l219.762 85.441" class="cls-5" data-name="Path 7467" transform="translate(547.451 .046)"/><path id="Path_7478" d="M219.762 0L0 85.441" class="cls-5" data-name="Path 7478" transform="translate(.787 .047)"/><path id="Path_7468" d="M0 0l190.869 61.888" class="cls-5" data-name="Path 7468" transform="translate(577.131 .046)"/><path id="Path_7479" d="M190.869 0L0 61.888" class="cls-5" data-name="Path 7479" transform="translate(0 .046)"/><path id="Path_7469" d="M0 0l161.028 45.84" class="cls-5" data-name="Path 7469" transform="translate(606.599 .046)"/><path id="Path_7480" d="M161.028 0L0 45.84" class="cls-5" data-name="Path 7480" transform="translate(.372 .047)"/><path id="Path_7470" d="M0 0l131.662 32.865" class="cls-5" data-name="Path 7470" transform="translate(636.265 .155)"/><path id="Path_7481" d="M131.662 0L0 32.865" class="cls-5" data-name="Path 7481" transform="translate(.072 .155)"/><path id="Path_7471" d="M0 0l101.87 22.895" class="cls-5" data-name="Path 7471" transform="translate(665.959 .022)"/><path id="Path_7482" d="M101.869 0L0 22.895" class="cls-5" data-name="Path 7482" transform="translate(.171 .022)"/><path id="Path_7472" d="M0 0l72.89 14.724" class="cls-5" data-name="Path 7472" transform="translate(694.78)"/><path id="Path_7483" d="M72.89 0L0 14.724" class="cls-5" data-name="Path 7483" transform="translate(.33)"/><path id="Line_1" d="M0 0h767.512" class="cls-5" data-name="Line 1" transform="translate(.247 394.449)"/><path id="Line_2" d="M0 0h767.512" class="cls-5" data-name="Line 2" transform="translate(.247 337.118)"/><path id="Line_3" d="M0 0h767.512" class="cls-5" data-name="Line 3" transform="translate(.247 286.275)"/><path id="Line_4" d="M0 0h767.512" class="cls-5" data-name="Line 4" transform="translate(.247 241.924)"/><path id="Line_5" d="M0 0h767.512" class="cls-5" data-name="Line 5" transform="translate(.247 202.981)"/><path id="Line_6" d="M0 0h767.512" class="cls-5" data-name="Line 6" transform="translate(.247 169.446)"/><path id="Line_7" d="M0 0h767.512" class="cls-5" data-name="Line 7" transform="translate(.247 130.24)"/><path id="Line_9" d="M0 0h767.512" class="cls-5" data-name="Line 9" transform="translate(.247 93.726)"/><path id="Line_10" d="M0 0h767.512" class="cls-5" data-name="Line 10" transform="translate(.247 76.418)"/><path id="Line_11" d="M0 0h767.512" class="cls-5" data-name="Line 11" transform="translate(.247 61.273)"/><path id="Line_12" d="M0 0h767.512" class="cls-5" data-name="Line 12" transform="translate(.247 48.292)"/><path id="Line_13" d="M0 0h767.512" class="cls-5" data-name="Line 13" transform="translate(.247 38.557)"/><path id="Line_14" d="M0 0h767.512" class="cls-5" data-name="Line 14" transform="translate(.247 29.903)"/><path id="Line_15" d="M0 0h767.512" class="cls-5" data-name="Line 15" transform="translate(.247 23.412)"/><path id="Line_16" d="M0 0h767.512" class="cls-5" data-name="Line 16" transform="translate(.247 16.922)"/><path id="Line_17" d="M0 0h767.512" class="cls-5" data-name="Line 17" transform="translate(.247 10.432)"/><path id="Path_9368" d="M0 0h767.512" class="cls-5" data-name="Path 9368" transform="translate(.247 5.023)"/><path id="Path_9369" d="M0 0h767.512" class="cls-5" data-name="Path 9369" transform="translate(.247 .023)"/></g><g id="Group_26006" class="cls-4" data-name="Group 26006" transform="translate(0 78.749)"><g id="Group_25723" data-name="Group 25723" transform="translate(45 477.438)"><g id="Group_25721" class="cls-4" data-name="Group 25721" transform="translate(.385)"><path id="Path_9362" d="M-7248-5545.61l49.906-56.222 27.468 27.806" class="cls-6" data-name="Path 9362" transform="translate(7250.445 5601.832)"/><path id="Path_9363" d="M-6815.623-5491.448l-50.458-36.987-19.014 19.014-10.166-10.166-10.166 10.166h-18.073l-30.07-30.07-26.886 26.886-51.519-51.52-24.634 24.634-44.187-44.187-27 27 40.461 11.218" class="cls-6" data-name="Path 9363" transform="translate(7198.272 5593.953)"/><path id="Path_9364" d="M-7249.875-5565.433l13.351-13.352 8.521 8.612 43.96 51.3 2.306-45.7-18.331-37.162-8.429 54.243-25.311-16.091-16.068 34.337 65.833 10.47-68.277 19.194" class="cls-6" data-name="Path 9364" transform="translate(7252.319 5601.787)"/><path id="Path_9365" d="M-6870.136-5492.337l-16.68-16.68-11.9 11.9-1.575 34.8" class="cls-6" data-name="Path 9365" transform="translate(7099.53 5561.548)"/><path id="Path_9366" d="M-6917.605-5462.207l-18.382 18.382-23.517-23.517-23.516 23.517" class="cls-6" data-name="Path 9366" transform="translate(7135.438 5543.461)"/><path id="Path_9367" d="M-7070.564-5505.914l-34.021 34.022-9.486-9.486-12.733-12.733-33.483 33.678" class="cls-6" data-name="Path 9367" transform="translate(7212.376 5560.202)"/><path id="Path_9370" d="M-7089.1-5005.2l13.646 37.769-25.518 17.848 46.837-2.692-21.32-15.156" class="cls-6" data-name="Path 9370" transform="translate(7186.632 5015.747)"/><path id="Path_9371" d="M-7100.972-4915.855l6.94 33.537 15.272-11.3 17.813 11.3 75.118-35.19-59.291-9.974-15.827 45.164 43.027-40.542" class="cls-6" data-name="Path 9371" transform="translate(7186.632 4982.015)"/><path id="Path_9372" d="M-6876.605-4930.736l10.12 23.608" class="cls-5" data-name="Path 9372" transform="translate(7089.252 4983.427)"/><path id="Path_9373" d="M-6844.082-4927.482l-31.254 45.331 61.517-15.071 6.146 15.015 32.1-15.254-20.279-.029 13.673-6.6" class="cls-6" data-name="Path 9373" transform="translate(7088.701 4982.015)"/><path id="Path_9374" d="M-6687.892-4907.9l32.022 34.054-61.372-10.017 41.436-10.84" class="cls-6" data-name="Path 9374" transform="translate(7020.085 4973.515)"/></g><g id="Group_25722" data-name="Group 25722" transform="translate(0 2.83)"><path id="Path_9362-2" d="M-7248-5545.61l49.906-56.222 27.468 27.806" class="cls-6" data-name="Path 9362" transform="translate(7248 5601.832)"/><path id="Path_9363-2" d="M-6817.807-5494.282l-48.571-34.312-18.992 18.959-10.154-10.136-10.154 10.136h-18.053l-30.036-29.982-26.855 26.808-51.461-51.37-24.606 24.563-44.136-44.059-26.967 26.919 40.415 11.186" class="cls-6" data-name="Path 9363" transform="translate(7195.828 5593.953)"/><path id="Path_9364-2" d="M-7248-5565.433l13.352-13.352 8.521 8.612 43.96 51.3 2.306-45.7-18.331-37.162-8.429 54.243-25.311-16.091-16.068 34.343 65.832 10.47-65.832 16.622" class="cls-6" data-name="Path 9364" transform="translate(7248 5601.787)"/><path id="Path_9365-2" d="M-6870.136-5492.337l-16.68-16.68-11.9 11.9-1.575 34.8" class="cls-6" data-name="Path 9365" transform="translate(7097.085 5561.548)"/><path id="Path_9366-2" d="M-6917.605-5462.207l-18.382 18.382-23.517-23.517-23.516 23.517" class="cls-6" data-name="Path 9366" transform="translate(7132.994 5543.461)"/><path id="Path_9367-2" d="M-7070.564-5505.914l-34.021 34.022-9.486-9.486-12.733-12.733-33.483 33.678" class="cls-6" data-name="Path 9367" transform="translate(7209.931 5560.202)"/><path id="Path_9370-2" d="M-7089.1-5005.2l13.646 37.769-25.518 17.848 46.837-2.692-21.32-15.156" class="cls-6" data-name="Path 9370" transform="translate(7184.187 5015.747)"/><path id="Path_9371-2" d="M-7100.972-4915.855l6.94 33.537 15.272-11.3 17.813 11.3 75.118-35.19-59.291-9.974-15.827 45.164 43.027-40.542" class="cls-6" data-name="Path 9371" transform="translate(7184.187 4982.015)"/><path id="Path_9372-2" d="M-6876.605-4930.736l10.12 23.608" class="cls-5" data-name="Path 9372" transform="translate(7086.808 4983.427)"/><path id="Path_9373-2" d="M-6844.082-4927.482l-31.254 45.331 61.517-15.071 6.146 15.015 32.1-15.254-20.279-.029 13.673-6.6" class="cls-6" data-name="Path 9373" transform="translate(7086.257 4982.015)"/><path id="Path_9374-2" d="M-6687.892-4907.9l32.022 34.054-61.372-10.017 41.436-10.84" class="cls-6" data-name="Path 9374" transform="translate(7017.641 4973.515)"/></g></g><g id="Group_25724" data-name="Group 25724" transform="translate(429.965 477.438)"><g id="Group_25721-2" class="cls-4" data-name="Group 25721"><path id="Path_9362-3" d="M-7170.626-5545.61l-49.906-56.222-27.468 27.806" class="cls-6" data-name="Path 9362" transform="translate(7550.831 5601.832)"/><path id="Path_9363-3" d="M-7127.793-5491.448l50.458-36.987 19.014 19.014 10.166-10.166 10.165 10.166h18.074l30.07-30.07 26.885 26.886 51.52-51.52 24.634 24.634 44.187-44.187 27 27-40.461 11.218" class="cls-6" data-name="Path 9363" transform="translate(7127.793 5593.953)"/><path id="Path_9364-3" d="M-7184.181-5565.433l-13.352-13.352-8.521 8.612-43.96 51.3-2.306-45.7 18.33-37.162 8.429 54.243 25.311-16.091 16.068 34.337-65.832 10.47 68.276 19.194" class="cls-6" data-name="Path 9364" transform="translate(7564.385 5601.787)"/><path id="Path_9365-3" d="M-6900.286-5492.337l16.68-16.68 11.9 11.9 1.576 34.8" class="cls-6" data-name="Path 9365" transform="translate(7053.541 5561.548)"/><path id="Path_9366-3" d="M-6983.02-5462.207l18.382 18.382 23.516-23.517 23.517 23.517" class="cls-6" data-name="Path 9366" transform="translate(7147.836 5543.461)"/><path id="Path_9367-3" d="M-7160.288-5505.914l34.022 34.022 9.485-9.486 12.733-12.733 33.482 33.678" class="cls-6" data-name="Path 9367" transform="translate(7401.125 5560.202)"/><path id="Path_9370-3" d="M-7066.006-5005.2l-13.645 37.769 25.517 17.848-46.837-2.692 21.32-15.156" class="cls-6" data-name="Path 9370" transform="translate(7351.124 5015.747)"/><path id="Path_9371-3" d="M-6985.83-4915.855l-6.939 33.537-15.272-11.3-17.813 11.3-75.117-35.19 59.29-9.974 15.827 45.164-43.026-40.542" class="cls-6" data-name="Path 9371" transform="translate(7282.82 4982.015)"/><path id="Path_9372-3" d="M-6866.485-4930.736l-10.12 23.608" class="cls-5" data-name="Path 9372" transform="translate(7036.488 4983.427)"/><path id="Path_9373-3" d="M-6806.824-4927.482l31.253 45.331-61.517-15.071-6.146 15.015-32.1-15.254 20.279-.029-13.673-6.6" class="cls-6" data-name="Path 9373" transform="translate(6944.855 4982.015)"/><path id="Path_9374-3" d="M-6685.22-4907.9l-32.022 34.054 61.373-10.017-41.436-10.84" class="cls-6" data-name="Path 9374" transform="translate(6735.675 4973.515)"/></g><g id="Group_25722-2" data-name="Group 25722" transform="translate(5.013 2.83)"><path id="Path_9362-4" d="M-7170.626-5545.61l-49.906-56.222-27.468 27.806" class="cls-6" data-name="Path 9362" transform="translate(7548.647 5601.832)"/><path id="Path_9363-4" d="M-7127.793-5494.282l48.57-34.312 18.993 18.959 10.154-10.136 10.154 10.136h18.053l30.036-29.982 26.855 26.808 51.461-51.37 24.606 24.563 44.136-44.059 26.968 26.919-40.415 11.186" class="cls-6" data-name="Path 9363" transform="translate(7127.793 5593.953)"/><path id="Path_9364-4" d="M-7179.862-5565.433l-13.352-13.352-8.521 8.612-43.961 51.3-2.306-45.7 18.331-37.162 8.429 54.243 25.311-16.091 16.068 34.337-65.833 10.47 65.833 16.622" class="cls-6" data-name="Path 9364" transform="translate(7557.884 5601.787)"/><path id="Path_9365-4" d="M-6900.286-5492.337l16.68-16.68 11.9 11.9 1.576 34.8" class="cls-6" data-name="Path 9365" transform="translate(7051.357 5561.548)"/><path id="Path_9366-4" d="M-6983.02-5462.207l18.382 18.382 23.516-23.517 23.517 23.517" class="cls-6" data-name="Path 9366" transform="translate(7145.653 5543.461)"/><path id="Path_9367-4" d="M-7160.288-5505.914l34.022 34.022 9.485-9.486 12.733-12.733 33.482 33.678" class="cls-6" data-name="Path 9367" transform="translate(7398.942 5560.202)"/><path id="Path_9370-4" d="M-7066.006-5005.2l-13.645 37.769 25.517 17.848-46.837-2.692 21.32-15.156" class="cls-6" data-name="Path 9370" transform="translate(7348.94 5015.747)"/><path id="Path_9371-4" d="M-6985.83-4915.855l-6.939 33.537-15.272-11.3-17.813 11.3-75.117-35.19 59.29-9.974 15.827 45.164-43.026-40.542" class="cls-6" data-name="Path 9371" transform="translate(7280.636 4982.015)"/><path id="Path_9372-4" d="M-6866.485-4930.736l-10.12 23.608" class="cls-5" data-name="Path 9372" transform="translate(7034.304 4983.427)"/><path id="Path_9373-4" d="M-6806.824-4927.482l31.253 45.331-61.517-15.071-6.146 15.015-32.1-15.254 20.279-.029-13.673-6.6" class="cls-6" data-name="Path 9373" transform="translate(6942.671 4982.015)"/><path id="Path_9374-4" d="M-6685.22-4907.9l-32.022 34.054 61.373-10.017-41.436-10.84" class="cls-6" data-name="Path 9374" transform="translate(6733.492 4973.515)"/></g></g></g><g id="Group_25974" fill="#fff" data-name="Group 25974" transform="translate(-553 160)"><path id="Path_9813" d="M23.838 47.8c-.181 0-.362 0-.543-.007a.8.8 0 01-.776-.816.785.785 0 01.816-.776c.181 0 .361.007.545.006a22.692 22.692 0 002.524-.141.8.8 0 11.178 1.582 23.7 23.7 0 01-2.744.152zm-3.69-.3a.808.808 0 01-.129-.01 23.8 23.8 0 01-3.2-.752.8.8 0 01.47-1.521 22.267 22.267 0 002.989.7.8.8 0 01-.126 1.581zm9.471-.419a.8.8 0 01-.2-1.567 22.182 22.182 0 002.917-.967.8.8 0 01.6 1.473 23.812 23.812 0 01-3.126 1.036.77.77 0 01-.19.024zm-15.535-1.457a.794.794 0 01-.337-.075 23.964 23.964 0 01-2.874-1.6.8.8 0 01.868-1.335 22.308 22.308 0 002.681 1.493.8.8 0 01-.339 1.517zm21.416-.956a.8.8 0 01-.4-1.483 22.544 22.544 0 002.541-1.727.8.8 0 11.983 1.253A24.042 24.042 0 0135.9 44.56a.793.793 0 01-.4.108zm-26.729-2.5a.8.8 0 01-.521-.194 24.124 24.124 0 01-2.333-2.32.8.8 0 011.2-1.049 22.354 22.354 0 002.177 2.166.8.8 0 01-.521 1.4zm31.721-1.416a.8.8 0 01-.573-1.349 22.489 22.489 0 001.978-2.35.8.8 0 111.285.939 24.169 24.169 0 01-2.117 2.517.793.793 0 01-.577.239zM4.586 37.39a.794.794 0 01-.666-.358 23.973 23.973 0 01-1.62-2.868.8.8 0 111.438-.684 22.339 22.339 0 001.512 2.677.8.8 0 01-.664 1.233zm39.643-1.766a.8.8 0 01-.7-1.173 22.351 22.351 0 001.262-2.8.8.8 0 111.493.552 23.868 23.868 0 01-1.352 3 .8.8 0 01-.703.422zM1.858 31.656A.8.8 0 011.1 31.1a23.775 23.775 0 01-.768-3.2.8.8 0 111.57-.264 22.258 22.258 0 00.717 2.986.8.8 0 01-.759 1.035zm44.574-1.981a.813.813 0 01-.171-.018.8.8 0 01-.607-.948 22.277 22.277 0 00.448-3.038.8.8 0 111.587.123 23.862 23.862 0 01-.48 3.255.8.8 0 01-.778.626zM.806 25.4a.8.8 0 01-.8-.773C0 24.391 0 24.154 0 23.918a24.254 24.254 0 01.138-2.579.8.8 0 011.583.17 22.8 22.8 0 00-.129 2.409q0 .332.01.661a.8.8 0 01-.773.819zm46.16-.684a.8.8 0 01-.8-.8 22.594 22.594 0 00-.208-3.065.8.8 0 111.577-.217 24.17 24.17 0 01.224 3.281.8.8 0 01-.794.799zM1.487 19.089a.815.815 0 01-.194-.024.8.8 0 01-.578-.965 23.716 23.716 0 011.019-3.13.8.8 0 011.476.6 22.248 22.248 0 00-.951 2.919.8.8 0 01-.772.6zm44.613-.661a.8.8 0 01-.766-.58 22.235 22.235 0 00-1.038-2.892.8.8 0 111.457-.642 23.779 23.779 0 011.113 3.1.8.8 0 01-.55.983.8.8 0 01-.216.031zM3.863 13.207a.8.8 0 01-.689-1.194 24.06 24.06 0 011.834-2.729.8.8 0 111.257.976 22.519 22.519 0 00-1.712 2.549.8.8 0 01-.69.398zm39.682-.593a.8.8 0 01-.678-.378 22.388 22.388 0 00-1.789-2.5.8.8 0 011.228-1.013 24.077 24.077 0 011.916 2.677.795.795 0 01-.677 1.213zM7.755 8.2A.8.8 0 017.2 6.829 23.953 23.953 0 019.705 4.7a.8.8 0 11.946 1.281 22.527 22.527 0 00-2.34 1.99.8.8 0 01-.556.229zM39.5 7.719a.8.8 0 01-.539-.21 22.538 22.538 0 00-2.4-1.919.8.8 0 01.907-1.308 23.988 23.988 0 012.568 2.056.8.8 0 01-.536 1.381zM12.862 4.424a.8.8 0 01-.381-1.5 23.86 23.86 0 012.994-1.37.8.8 0 11.56 1.49 22.145 22.145 0 00-2.794 1.278.794.794 0 01-.379.102zM34.289 4.1a.791.791 0 01-.359-.086 22.252 22.252 0 00-2.83-1.189.8.8 0 01.516-1.507A23.893 23.893 0 0134.65 2.6a.8.8 0 01-.36 1.506zM18.8 2.189a.8.8 0 01-.169-1.572 23.864 23.864 0 013.253-.5.8.8 0 11.131 1.587 22.349 22.349 0 00-3.035.463.806.806 0 01-.18.022zm9.482-.14a.823.823 0 01-.152-.014 22.35 22.35 0 00-3.048-.373.8.8 0 11.085-1.59 23.93 23.93 0 013.266.4.8.8 0 01-.151 1.578z" data-name="Path 9813" opacity=".4" transform="translate(1245.52 291.395)"/><path id="Path_9814" d="M42.506 60.44a.8.8 0 01-.01-1.592 16.8 16.8 0 003.018-.311.8.8 0 01.306 1.563 18.424 18.424 0 01-3.3.341zm-3.168-.24a.787.787 0 01-.134-.011 18.253 18.253 0 01-3.213-.851.8.8 0 01.547-1.5 16.665 16.665 0 002.932.777.8.8 0 01-.132 1.581zm9.382-.976a.8.8 0 01-.292-1.537 16.755 16.755 0 002.708-1.369.8.8 0 11.844 1.35 18.339 18.339 0 01-2.967 1.5.8.8 0 01-.294.051zm-15.329-1.2a.79.79 0 01-.4-.111 18.441 18.441 0 01-2.7-1.941.8.8 0 111.043-1.2 16.87 16.87 0 002.466 1.769.8.8 0 01-.406 1.481zm20.7-2.162a.8.8 0 01-.537-1.383 16.892 16.892 0 002.046-2.243.8.8 0 011.268.963 18.453 18.453 0 01-2.241 2.453.8.8 0 01-.539.208zm-25.484-1.988a.8.8 0 01-.622-.3A18.333 18.333 0 0126.15 50.8a.8.8 0 011.4-.755 16.776 16.776 0 001.676 2.53.8.8 0 01-.62 1.294zm29.31-3.056a.8.8 0 01-.71-1.156 16.655 16.655 0 001.116-2.821.8.8 0 011.528.448 18.245 18.245 0 01-1.223 3.091.8.8 0 01-.711.438zM25.6 48.3a.8.8 0 01-.757-.553 18.262 18.262 0 01-.725-3.243.8.8 0 011.579-.2 16.649 16.649 0 00.661 2.96.8.8 0 01-.758 1.036zm34.1-3.556a.7.7 0 01-.082 0 .8.8 0 01-.71-.873 16.942 16.942 0 00-.184-4.755.8.8 0 111.566-.286 18.444 18.444 0 01.3 3.308 18.64 18.64 0 01-.1 1.9.8.8 0 01-.79.705zM24.79 42.02h-.041a.8.8 0 01-.754-.836 18.438 18.438 0 01.469-3.29.8.8 0 011.549.367 16.774 16.774 0 00-.429 3 .8.8 0 01-.794.759zm33.862-5.32a.8.8 0 01-.744-.514 16.686 16.686 0 00-1.334-2.726.8.8 0 011.36-.827 18.259 18.259 0 011.466 2.989.8.8 0 01-.743 1.08zm-32.4-.841a.8.8 0 01-.728-1.118 18.381 18.381 0 011.614-2.9.8.8 0 011.316.9 16.736 16.736 0 00-1.473 2.652.8.8 0 01-.73.467zm29.113-4.571a.8.8 0 01-.595-.267 16.915 16.915 0 00-2.215-2.076.8.8 0 01.98-1.255 18.47 18.47 0 012.424 2.272.8.8 0 01-.595 1.326zm-25.549-.663a.8.8 0 01-.566-1.355 18.531 18.531 0 012.538-2.145.8.8 0 11.913 1.3 16.851 16.851 0 00-2.321 1.965.792.792 0 01-.565.237zm20.556-3.233A.791.791 0 0150 27.3a16.683 16.683 0 00-2.8-1.149.8.8 0 11.469-1.521 18.3 18.3 0 013.075 1.263.8.8 0 01-.369 1.5zM35 27a.8.8 0 01-.332-1.52 18.27 18.27 0 013.138-1.1.8.8 0 11.388 1.544 16.656 16.656 0 00-2.863 1A.791.791 0 0135 27zm9.319-1.461a.734.734 0 01-.093-.006 17.092 17.092 0 00-3.035-.078.8.8 0 01-.1-1.589 18.75 18.75 0 013.32.086.8.8 0 01-.09 1.587z" data-name="Path 9814" opacity=".6" transform="translate(1227.122 273.181)"/><path id="Path_9815" d="M63.14 75.379a12.075 12.075 0 01-1.7-.12.8.8 0 11.224-1.576 10.568 10.568 0 002.948 0 .8.8 0 01.224 1.576 12.14 12.14 0 01-1.696.12zm-4.63-1a.79.79 0 01-.331-.073 11.937 11.937 0 01-2.858-1.84.8.8 0 111.043-1.2 10.371 10.371 0 002.478 1.595.8.8 0 01-.331 1.519zm9.262 0a.8.8 0 01-.332-1.52 10.368 10.368 0 002.477-1.6.8.8 0 111.043 1.2A11.954 11.954 0 0168.1 74.3a.786.786 0 01-.328.073zM53.765 70.26a.8.8 0 01-.67-.365 11.892 11.892 0 01-1.414-3.095.8.8 0 011.528-.448 10.277 10.277 0 001.225 2.678.8.8 0 01-.238 1.1.788.788 0 01-.431.13zm18.752 0a.8.8 0 01-.669-1.227 10.28 10.28 0 001.224-2.678.8.8 0 111.528.445 11.874 11.874 0 01-1.413 3.093.793.793 0 01-.67.365zm1.768-6.024a.8.8 0 01-.8-.8 10.371 10.371 0 00-.416-2.916.8.8 0 011.528-.448 11.963 11.963 0 01.481 3.364.8.8 0 01-.793.798zM52 64.234a.8.8 0 01-.8-.8 11.949 11.949 0 01.48-3.363.8.8 0 011.528.448 10.362 10.362 0 00-.416 2.915.8.8 0 01-.792.8zm1.767-6.025a.8.8 0 01-.669-1.227 12.008 12.008 0 012.226-2.568.8.8 0 111.043 1.2 10.414 10.414 0 00-1.931 2.227.794.794 0 01-.673.369zm18.755 0a.8.8 0 01-.67-.365 10.38 10.38 0 00-1.931-2.227.8.8 0 111.043-1.2 11.989 11.989 0 012.227 2.568.8.8 0 01-.668 1.227zm-4.752-4.114a.8.8 0 01-.331-.072 10.29 10.29 0 00-2.826-.829.8.8 0 11.224-1.576 11.887 11.887 0 013.263.956.8.8 0 01-.331 1.52zm-9.26 0a.8.8 0 01-.332-1.52 11.853 11.853 0 013.263-.957.8.8 0 11.224 1.576 10.289 10.289 0 00-2.826.829.782.782 0 01-.329.072z" data-name="Path 9815" opacity=".8" transform="translate(1206.26 251.875)"/><path id="Union_55" d="M5347.572 8867.145a5.572 5.572 0 115.572-5.572 5.578 5.578 0 01-5.572 5.572zm0-9.552a3.98 3.98 0 103.98 3.979 3.984 3.984 0 00-3.98-3.979z" data-name="Union 55" transform="translate(-4078.172 -8546.26)"/></g></g></g></g></svg>