<svg xmlns="http://www.w3.org/2000/svg" viewBox="0 0 40 40">
  <path fill="#fff" d="M20 40a20 20 0 0 1-7.79-38.43 20 20 0 0 1 15.57 36.86A19.87 19.87 0 0 1 20 40zM8.95 28.92a13.55 13.55 0 0 0 7.33 2.15 13.77 13.77 0 0 0 5.83-1.24 12.87 12.87 0 0 0 4.27-3.2 14.07 14.07 0 0 0 3.5-9.17c0-.21 0-.42-.02-.62a9.64 9.64 0 0 0 2.39-2.47 9.57 9.57 0 0 1-2.75.75 4.79 4.79 0 0 0 2.1-2.64 9.56 9.56 0 0 1-3.03 1.16A4.78 4.78 0 0 0 20.43 18a13.46 13.46 0 0 1-5.54-1.49 13.56 13.56 0 0 1-4.32-3.5 4.79 4.79 0 0 0 1.48 6.38 4.78 4.78 0 0 1-2.17-.6v.06a4.8 4.8 0 0 0 3.84 4.68 4.75 4.75 0 0 1-1.26.17 4.83 4.83 0 0 1-.9-.08 4.78 4.78 0 0 0 4.47 3.32 9.53 9.53 0 0 1-5.94 2.04 9.65 9.65 0 0 1-1.14-.06z" data-name="Subtraction 68"/>
</svg>
