<svg width="445" height="245" viewBox="0 0 445 245" fill="none" xmlns="http://www.w3.org/2000/svg">
<g clip-path="url(#clip0)">
<path d="M410.103 150.047L156.448 39.0234" stroke="#40DCAF" stroke-width="0.611365" stroke-miterlimit="10"/>
<path d="M408.757 156.222L153.268 54.4297" stroke="#9489FE" stroke-width="0.611365" stroke-miterlimit="10"/>
<path d="M407.411 162.396L150.149 69.8965" stroke="#40DCAF" stroke-width="0.611365" stroke-miterlimit="10"/>
<path d="M406.008 168.571L146.973 85.3027" stroke="#9489FE" stroke-width="0.611365" stroke-miterlimit="10"/>
<path d="M404.662 174.745L143.854 100.709" stroke="#40DCAF" stroke-width="0.611365" stroke-miterlimit="10"/>
<path d="M403.316 180.861L140.674 116.117" stroke="#9489FE" stroke-width="0.611365" stroke-miterlimit="10"/>
<path d="M401.912 187.035L137.497 131.523" stroke="#40DCAF" stroke-width="0.611365" stroke-miterlimit="10"/>
<path d="M400.566 193.209L134.378 146.99" stroke="#9489FE" stroke-width="0.611365" stroke-miterlimit="10"/>
<path d="M399.159 199.384L131.198 162.396" stroke="#40DCAF" stroke-width="0.611365" stroke-miterlimit="10"/>
<path d="M397.817 205.559L128.083 177.803" stroke="#9489FE" stroke-width="0.611365" stroke-miterlimit="10"/>
<path d="M396.471 211.731L124.903 193.207" stroke="#40DCAF" stroke-width="0.611365" stroke-miterlimit="10"/>
<path d="M395.064 217.906L121.784 208.613" stroke="#9489FE" stroke-width="0.611365" stroke-miterlimit="10"/>
<path d="M395.251 224.027C418.279 224.027 436.946 205.359 436.946 182.332C436.946 159.304 418.279 140.637 395.251 140.637C372.223 140.637 353.556 159.304 353.556 182.332C353.556 205.359 372.223 224.027 395.251 224.027Z" stroke="#F9FAFB" stroke-width="14.6727" stroke-miterlimit="10"/>
<path d="M395.251 224.027C418.279 224.027 436.946 205.359 436.946 182.332C436.946 159.304 418.279 140.637 395.251 140.637C372.223 140.637 353.556 159.304 353.556 182.332C353.556 205.359 372.223 224.027 395.251 224.027Z" fill="#F9FAFB" stroke="#121B23" stroke-width="1.22273" stroke-miterlimit="10"/>
<path d="M118.971 224.027C176.574 224.027 223.27 177.331 223.27 119.728C223.27 62.1258 176.574 15.4297 118.971 15.4297C61.3683 15.4297 14.6722 62.1258 14.6722 119.728C14.6722 177.331 61.3683 224.027 118.971 224.027Z" stroke="#F9FAFB" stroke-width="29.3455" stroke-miterlimit="10"/>
<path d="M118.971 224.027C176.574 224.027 223.27 177.331 223.27 119.728C223.27 62.1258 176.574 15.4297 118.971 15.4297C61.3683 15.4297 14.6722 62.1258 14.6722 119.728C14.6722 177.331 61.3683 224.027 118.971 224.027Z" fill="#F9FAFB" stroke="#121B23" stroke-width="1.22273" stroke-miterlimit="10"/>
<path d="M118.971 94.5352V144.973" stroke="#121B23" stroke-width="1.22273" stroke-miterlimit="10"/>
<path d="M93.7827 119.729H144.22" stroke="#121B23" stroke-width="1.22273" stroke-miterlimit="10"/>
<path d="M24.8193 119.726C24.8193 67.7603 66.9423 25.5762 118.969 25.5762C165.372 25.5762 203.949 59.1401 211.713 103.342" stroke="url(#paint0_linear)" stroke-width="1.22273" stroke-miterlimit="10"/>
<path d="M213.119 119.727C213.119 171.693 170.996 213.877 118.969 213.877C72.5665 213.877 33.9894 180.313 26.2251 136.111" stroke="url(#paint1_linear)" stroke-width="1.22273" stroke-miterlimit="10"/>
<path d="M395.245 216.32C414.019 216.32 429.237 201.101 429.237 182.328C429.237 163.555 414.019 148.336 395.245 148.336C376.472 148.336 361.254 163.555 361.254 182.328C361.254 201.101 376.472 216.32 395.245 216.32Z" stroke="#9489FE" stroke-width="1.22273" stroke-miterlimit="10"/>
<path d="M213.122 122.784C214.81 122.784 216.179 121.415 216.179 119.727C216.179 118.039 214.81 116.67 213.122 116.67C211.434 116.67 210.065 118.039 210.065 119.727C210.065 121.415 211.434 122.784 213.122 122.784Z" fill="#40DCAF"/>
<path d="M118.606 224.023H393.72" stroke="#121B23" stroke-width="1.22273" stroke-miterlimit="10"/>
<path d="M236.171 244.015L256.163 224.023L276.155 244.015" stroke="#121B23" stroke-width="1.22273" stroke-miterlimit="10"/>
<path d="M323.654 163.68C325.005 163.68 326.1 162.585 326.1 161.235C326.1 159.884 325.005 158.789 323.654 158.789C322.303 158.789 321.209 159.884 321.209 161.235C321.209 162.585 322.303 163.68 323.654 163.68Z" fill="#9489FE"/>
<path d="M260.687 99.6722C262.037 99.6722 263.132 98.5773 263.132 97.2267C263.132 95.8761 262.037 94.7812 260.687 94.7812C259.336 94.7812 258.241 95.8761 258.241 97.2267C258.241 98.5773 259.336 99.6722 260.687 99.6722Z" fill="#9489FE"/>
<path d="M260.687 215.709C262.037 215.709 263.132 214.614 263.132 213.264C263.132 211.913 262.037 210.818 260.687 210.818C259.336 210.818 258.241 211.913 258.241 213.264C258.241 214.614 259.336 215.709 260.687 215.709Z" fill="#9489FE"/>
<path d="M302.809 188.504C304.16 188.504 305.255 187.409 305.255 186.059C305.255 184.708 304.16 183.613 302.809 183.613C301.459 183.613 300.364 184.708 300.364 186.059C300.364 187.409 301.459 188.504 302.809 188.504Z" fill="#40DCAF"/>
<path d="M260.687 159.832C262.037 159.832 263.132 158.737 263.132 157.387C263.132 156.036 262.037 154.941 260.687 154.941C259.336 154.941 258.241 156.036 258.241 157.387C258.241 158.737 259.336 159.832 260.687 159.832Z" fill="#40DCAF"/>
<path d="M358.809 129.385C360.16 129.385 361.255 128.29 361.255 126.94C361.255 125.589 360.16 124.494 358.809 124.494C357.459 124.494 356.364 125.589 356.364 126.94C356.364 128.29 357.459 129.385 358.809 129.385Z" fill="#40DCAF"/>
<path d="M159.565 23.6172L411.509 143.873" stroke="#121B23" stroke-width="1.22273" stroke-miterlimit="10"/>
</g>
<defs>
<linearGradient id="paint0_linear" x1="24.2299" y1="72.3642" x2="212.316" y2="72.3642" gradientUnits="userSpaceOnUse">
<stop stop-color="#40DCAF"/>
<stop offset="0.2822" stop-color="#42DCB0"/>
<stop offset="0.4315" stop-color="#4ADEB3"/>
<stop offset="0.5497" stop-color="#58E0B9"/>
<stop offset="0.6516" stop-color="#6BE4C1"/>
<stop offset="0.743" stop-color="#84E8CB"/>
<stop offset="0.8269" stop-color="#A2EED8"/>
<stop offset="0.9051" stop-color="#C7F5E7"/>
<stop offset="0.9768" stop-color="#F0FCF9"/>
<stop offset="1" stop-color="white"/>
</linearGradient>
<linearGradient id="paint1_linear" x1="25.6535" y1="167.119" x2="213.739" y2="167.119" gradientUnits="userSpaceOnUse">
<stop stop-color="white"/>
<stop offset="0.0085724" stop-color="#FAFEFD"/>
<stop offset="0.0898072" stop-color="#CFF6EB"/>
<stop offset="0.1773" stop-color="#A8EFDB"/>
<stop offset="0.2701" stop-color="#88E9CD"/>
<stop offset="0.3697" stop-color="#6EE4C2"/>
<stop offset="0.4788" stop-color="#59E1BA"/>
<stop offset="0.6021" stop-color="#4BDEB4"/>
<stop offset="0.7515" stop-color="#43DCB0"/>
<stop offset="1" stop-color="#40DCAF"/>
</linearGradient>
<clipPath id="clip0">
<rect y="0.753906" width="444.34" height="243.69" fill="white"/>
</clipPath>
</defs>
</svg>
