<svg width="64" height="64" viewBox="0 0 64 64" fill="none" xmlns="http://www.w3.org/2000/svg">
<path d="M32 64C49.6731 64 64 49.6731 64 32C64 14.3269 49.6731 0 32 0C14.3269 0 0 14.3269 0 32C0 49.6731 14.3269 64 32 64Z" fill="white"/>
<path fill-rule="evenodd" clip-rule="evenodd" d="M31.0769 12.0136C28.7061 12.1143 26.5184 12.664 24.4219 13.6856C22.7102 14.5196 21.2678 15.5435 19.9347 16.8706C16.9777 19.8144 15.2657 23.6304 15.0285 27.8065C14.9909 28.4679 14.9903 43.7244 15.0278 44.0602C15.0923 44.6373 15.2337 45.1067 15.4974 45.6196C15.7164 46.0456 16.0084 46.4336 16.3788 46.7907C16.9843 47.3745 17.6937 47.7457 18.5731 47.9386L18.8531 48H31.6901C43.9755 48 44.538 47.9979 44.7788 47.9517C45.1249 47.8853 45.6996 47.6923 45.9909 47.5445C47.3172 46.8721 48.2021 45.6261 48.3928 44.1628C48.4299 43.8785 48.4333 42.9601 48.4246 35.713C48.4176 29.8865 48.4063 27.503 48.3845 27.3027C48.2485 26.0467 48.0971 25.2123 47.8304 24.2473C46.4587 19.2849 42.8127 15.1889 38.0291 13.2366C35.8558 12.3496 33.3878 11.9155 31.0769 12.0136ZM30.8359 22.2116L30.8347 30.191L30.3808 30.4971C30.1311 30.6655 29.7421 30.9291 29.5162 31.0828C29.2903 31.2365 28.6163 31.6939 28.0184 32.0991C27.4204 32.5043 26.8353 32.9012 26.7179 32.9811C26.1411 33.3737 24.7411 34.322 24.7117 34.3399C24.6851 34.3562 24.6784 32.5193 24.6784 25.1899V16.0195L24.9601 15.8727C26.7612 14.9335 28.8151 14.3555 30.777 14.2358L30.837 14.2321L30.8359 22.2116ZM33.1965 14.2864C34.9033 14.4493 36.6441 14.9551 38.2346 15.7502L38.7418 16.0038L38.7485 26.1772L38.7553 36.3507L37.9487 36.8937C37.5051 37.1923 36.7103 37.7268 36.1824 38.0814C35.6546 38.436 34.6527 39.1095 33.9562 39.5781C33.2598 40.0466 32.6689 40.4415 32.6433 40.4558C32.5989 40.4804 32.5965 39.8487 32.5965 27.3555V14.2295L32.7499 14.2439C32.8342 14.2519 33.0351 14.271 33.1965 14.2864ZM22.8855 35.5719C22.8672 35.5898 21.5864 36.4624 20.0395 37.5113L17.2268 39.4184L17.2189 33.8997C17.2111 28.3307 17.2175 27.8369 17.3081 27.0498C17.7437 23.2659 19.6387 19.8147 22.5856 17.4381L22.9055 17.1801L22.9122 26.3599C22.9175 33.6814 22.9121 35.5462 22.8855 35.5719ZM40.8163 17.4062C41.9931 18.3559 43.0323 19.501 43.8544 20.7541C44.1604 21.2205 44.4915 21.7924 44.4813 21.837C44.4746 21.8662 40.5618 24.7472 40.5287 24.7472C40.521 24.7472 40.5147 23.0461 40.5147 20.9671C40.5147 18.888 40.5215 17.187 40.5297 17.187C40.538 17.187 40.6669 17.2856 40.8163 17.4062ZM45.3632 23.7688C45.6986 24.7015 45.9147 25.5531 46.0586 26.5083C46.1331 27.0035 46.1709 27.3627 46.206 27.915C46.217 28.0867 46.2232 29.35 46.2208 30.8978L46.2201 31.3383L45.1203 32.0773C41.4196 34.5639 40.5365 35.1557 40.5262 35.1557C40.52 35.1557 40.5147 33.2416 40.5147 30.9023V26.6489L42.8409 25.0215C44.1202 24.1265 45.1804 23.3931 45.1969 23.3919C45.2133 23.3906 45.2882 23.5602 45.3632 23.7688ZM30.837 37.0161V41.6717L30.1905 42.1053C29.8349 42.3438 29.364 42.6605 29.1441 42.8092C28.9241 42.9579 28.3182 43.3653 27.7977 43.7145C27.2771 44.0636 26.6173 44.5069 26.3313 44.6996C26.0454 44.8923 25.5566 45.2199 25.245 45.4274L24.6785 45.8048L21.9391 45.8052C18.9814 45.8056 19.0156 45.8071 18.62 45.6631C17.9778 45.4293 17.4695 44.861 17.2848 44.1705C17.2291 43.9623 17.2268 43.9035 17.2268 42.6893V41.4249L23.8527 37.0059C27.4968 34.5754 30.5501 32.5365 30.6377 32.4751C30.7253 32.4135 30.806 32.3626 30.817 32.3619C30.828 32.3612 30.837 34.4556 30.837 37.0161ZM46.2214 38.6193C46.2213 42.2046 46.2124 43.8702 46.1927 43.9803C46.0304 44.8869 45.3638 45.5795 44.4777 45.7623C44.2879 45.8014 43.5363 45.8053 36.2398 45.805C31.8239 45.8048 28.043 45.8044 27.8377 45.8043L27.4645 45.8038L29.0907 44.7261C29.9852 44.1333 31.1938 43.3337 31.7766 42.9492C34.9185 40.876 45.5895 33.8145 45.9915 33.5424C46.1079 33.4637 46.2071 33.4035 46.2123 33.4086C46.2173 33.4137 46.2214 35.7585 46.2214 38.6193Z" fill="#1F2A4B"/>
</svg>
