<svg id="Production" xmlns="http://www.w3.org/2000/svg" xmlns:xlink="http://www.w3.org/1999/xlink" viewBox="0 0 720 720"><defs><style>.cls-1,.cls-15,.cls-22,.cls-23,.cls-24{fill:#141e27;}.cls-1{stroke:#40dcaf;}.cls-1,.cls-14,.cls-15,.cls-16,.cls-17,.cls-18,.cls-21,.cls-22,.cls-23,.cls-25{stroke-miterlimit:10;}.cls-1,.cls-15,.cls-16,.cls-17,.cls-18,.cls-20,.cls-22,.cls-23,.cls-25{stroke-width:2px;}.cls-2{fill:url(#linear-gradient);}.cls-3{fill:url(#linear-gradient-2);}.cls-4{fill:url(#linear-gradient-3);}.cls-5{fill:url(#linear-gradient-4);}.cls-6{fill:url(#linear-gradient-5);}.cls-7{fill:url(#linear-gradient-6);}.cls-8{fill:url(#linear-gradient-7);}.cls-9{fill:url(#linear-gradient-8);}.cls-10{fill:url(#linear-gradient-9);}.cls-11{fill:url(#linear-gradient-10);}.cls-12{fill:url(#linear-gradient-11);}.cls-13{fill:url(#linear-gradient-12);}.cls-14,.cls-17,.cls-18,.cls-20,.cls-21,.cls-25{fill:none;}.cls-14{stroke:#121b23;stroke-width:32px;}.cls-15,.cls-20,.cls-25{stroke:#fff;}.cls-16{fill:#121b23;}.cls-16,.cls-22{stroke:#f9fafb;}.cls-17{stroke:url(#linear-gradient-13);}.cls-18{stroke:url(#linear-gradient-14);}.cls-19{fill:#40dcaf;}.cls-20{stroke-linejoin:bevel;}.cls-21{stroke:#141e27;stroke-width:8px;}.cls-23{stroke:#9489fe;}.cls-25{stroke-linecap:round;stroke-dasharray:0 6;}.cls-26{fill:#fff;}.cls-27{fill:#9489fe;}</style><linearGradient id="linear-gradient" x1="227.07" y1="107.05" x2="349.28" y2="226.77" gradientTransform="translate(389.69 -157.91) rotate(74.53)" gradientUnits="userSpaceOnUse"><stop offset="0" stop-color="#141e27"/><stop offset="0.01" stop-color="#15222a"/><stop offset="0.09" stop-color="#1f4d49"/><stop offset="0.18" stop-color="#287464"/><stop offset="0.27" stop-color="#2f947c"/><stop offset="0.37" stop-color="#35ae8e"/><stop offset="0.48" stop-color="#3ac39d"/><stop offset="0.6" stop-color="#3dd1a7"/><stop offset="0.75" stop-color="#3fd9ad"/><stop offset="1" stop-color="#40dcaf"/></linearGradient><linearGradient id="linear-gradient-2" x1="204.47" y1="130.12" x2="326.68" y2="249.84" gradientTransform="translate(338.8 -135.07) rotate(64.6)" xlink:href="#linear-gradient"/><linearGradient id="linear-gradient-3" x1="181.87" y1="153.19" x2="304.08" y2="272.91" gradientTransform="translate(282.01 -113.47) rotate(53.39)" xlink:href="#linear-gradient"/><linearGradient id="linear-gradient-4" x1="159.27" y1="176.26" x2="281.48" y2="295.98" gradientTransform="translate(222.29 -91.38) rotate(41.59)" xlink:href="#linear-gradient"/><linearGradient id="linear-gradient-5" x1="136.68" y1="199.33" x2="258.88" y2="319.05" gradientTransform="translate(164.09 -68.45) rotate(30.16)" xlink:href="#linear-gradient"/><linearGradient id="linear-gradient-6" x1="114.08" y1="222.4" x2="236.29" y2="342.12" gradientTransform="translate(110.99 -46) rotate(19.89)" xlink:href="#linear-gradient"/><linearGradient id="linear-gradient-7" x1="215.77" y1="118.59" x2="337.98" y2="238.3" gradientTransform="translate(365.07 -146.21) rotate(69.76)" gradientUnits="userSpaceOnUse"><stop offset="0" stop-color="#141e27"/><stop offset="0.05" stop-color="#252c44"/><stop offset="0.12" stop-color="#3f426f"/><stop offset="0.21" stop-color="#565596"/><stop offset="0.3" stop-color="#6965b6"/><stop offset="0.39" stop-color="#7972d0"/><stop offset="0.5" stop-color="#857ce5"/><stop offset="0.62" stop-color="#8e84f3"/><stop offset="0.76" stop-color="#9288fb"/><stop offset="1" stop-color="#9489fe"/></linearGradient><linearGradient id="linear-gradient-8" x1="193.17" y1="141.66" x2="315.38" y2="261.37" gradientTransform="translate(311.01 -124.24) rotate(59.12)" xlink:href="#linear-gradient-7"/><linearGradient id="linear-gradient-9" x1="170.57" y1="164.73" x2="292.78" y2="284.44" gradientTransform="translate(252.24 -102.55) rotate(47.51)" xlink:href="#linear-gradient-7"/><linearGradient id="linear-gradient-10" x1="147.98" y1="187.8" x2="270.18" y2="307.51" gradientTransform="translate(192.73 -79.96) rotate(35.78)" xlink:href="#linear-gradient-7"/><linearGradient id="linear-gradient-11" x1="125.38" y1="210.87" x2="247.58" y2="330.58" gradientTransform="translate(136.76 -57.05) rotate(24.85)" xlink:href="#linear-gradient-7"/><linearGradient id="linear-gradient-12" x1="102.78" y1="233.94" x2="224.99" y2="353.65" gradientTransform="translate(86.86 -35.52) rotate(15.32)" xlink:href="#linear-gradient-7"/><linearGradient id="linear-gradient-13" x1="218.93" y1="335.33" x2="673.08" y2="335.33" gradientUnits="userSpaceOnUse"><stop offset="0" stop-color="#40dcaf"/><stop offset="0.28" stop-color="#3fdaad"/><stop offset="0.43" stop-color="#3ed2a8"/><stop offset="0.55" stop-color="#3bc49e"/><stop offset="0.65" stop-color="#36b190"/><stop offset="0.74" stop-color="#30987e"/><stop offset="0.83" stop-color="#297a69"/><stop offset="0.91" stop-color="#21554e"/><stop offset="0.98" stop-color="#172c31"/><stop offset="1" stop-color="#141e27"/></linearGradient><linearGradient id="linear-gradient-14" x1="222.37" y1="564.13" x2="676.52" y2="564.13" gradientTransform="matrix(1, 0, 0, 1, 0, 0)" xlink:href="#linear-gradient"/></defs><polyline class="cls-1" points="135.29 169.72 87.45 169.72 87.45 89.8 167.37 89.8 167.37 137.59"/><rect class="cls-2" x="297.99" y="-0.5" width="1.25" height="355.27" transform="translate(48.26 417.69) rotate(-74.53)"/><rect class="cls-3" x="275.6" y="35.68" width="1.25" height="329.45" transform="translate(-23.28 363.99) rotate(-64.6)"/><rect class="cls-4" x="253.21" y="66.19" width="1.25" height="314.97" transform="translate(-77.1 294.04) rotate(-53.39)"/><rect class="cls-5" x="230.81" y="90.25" width="1.25" height="313.41" transform="translate(-105.59 215.9) rotate(-41.59)"/><rect class="cls-6" x="208.42" y="107.76" width="1.25" height="324.93" transform="translate(-107.47 141.63) rotate(-30.16)"/><rect class="cls-7" x="186.03" y="119.37" width="1.25" height="348.26" transform="translate(-88.72 81.01) rotate(-19.89)"/><rect class="cls-8" x="286.79" y="18.23" width="1.25" height="341.08" transform="translate(10.86 393.11) rotate(-69.76)"/><rect class="cls-9" x="264.4" y="51.71" width="1.25" height="320.67" transform="translate(-52.97 330.69) rotate(-59.12)"/><rect class="cls-10" x="242.01" y="79.05" width="1.25" height="312.53" transform="translate(-94.78 255.27) rotate(-47.51)"/><rect class="cls-11" x="219.62" y="99.8" width="1.25" height="317.58" transform="translate(-109.62 177.55) rotate(-35.78)"/><rect class="cls-12" x="197.23" y="114.24" width="1.25" height="335.24" transform="translate(-100.13 109.24) rotate(-24.85)"/><rect class="cls-13" x="174.83" y="123.3" width="1.25" height="363.68" transform="translate(-74.39 57.21) rotate(-15.32)"/><circle class="cls-14" cx="447.73" cy="449.73" r="252.4"/><circle class="cls-15" cx="447.73" cy="449.73" r="252.4"/><line class="cls-16" x1="447.73" y1="388.71" x2="447.73" y2="510.75"/><line class="cls-16" x1="386.71" y1="449.73" x2="508.75" y2="449.73"/><path class="cls-17" d="M219.93,449.73c0-125.81,102-227.8,227.8-227.8,112.31,0,205.64,81.29,224.37,188.24"/><path class="cls-18" d="M675.52,449.73c0,125.81-102,227.79-227.79,227.79-112.32,0-205.64-81.28-224.37-188.23"/><circle class="cls-19" cx="675.52" cy="449.73" r="7.5"/><circle class="cls-19" cx="219.93" cy="449.73" r="7.5"/><polyline class="cls-20" points="201.12 503.79 127.41 129.76 492.2 201.23"/><line class="cls-21" x1="125.64" y1="127.99" x2="69.05" y2="71.39"/><circle class="cls-22" cx="41.62" cy="43.97" r="33.78"/><circle class="cls-23" cx="41.62" cy="43.97" r="24.75"/><circle class="cls-24" cx="127.41" cy="129.76" r="15"/><line class="cls-25" x1="125.64" y1="127.99" x2="69.05" y2="71.39"/><circle class="cls-26" cx="127.41" cy="129.76" r="5"/><circle class="cls-27" cx="207.1" cy="302.28" r="3.75"/><circle class="cls-27" cx="202.42" cy="233.18" r="3.75"/><circle class="cls-27" cx="268.15" cy="214.51" r="3.75"/><circle class="cls-19" cx="207.69" cy="189.16" r="3.75"/><circle class="cls-19" cx="231.44" cy="246.95" r="3.75"/><circle class="cls-19" cx="329.45" cy="185.41" r="3.75"/><circle class="cls-19" cx="161.39" cy="223.68" r="3.75"/><circle class="cls-27" cx="244.6" cy="172.9" r="3.75"/></svg>