<svg xmlns="http://www.w3.org/2000/svg" viewBox="0 0 30 30">
  <path fill="#fff" d="M15 30a15.111 15.111 0 01-3.023-.3 14.918 14.918 0 01-5.364-2.257 15.044 15.044 0 01-5.435-6.6 14.925 14.925 0 01-.878-2.82 15.146 15.146 0 010-6.046 14.918 14.918 0 012.262-5.364 15.044 15.044 0 016.6-5.435A14.924 14.924 0 0111.977.3a15.146 15.146 0 016.046 0 14.918 14.918 0 015.364 2.257 15.044 15.044 0 015.435 6.6 14.924 14.924 0 01.874 2.816 15.146 15.146 0 010 6.046 14.918 14.918 0 01-2.257 5.364 15.044 15.044 0 01-6.6 5.435 14.924 14.924 0 01-2.816.874A15.111 15.111 0 0115 30zM11.287 5.474a15.885 15.885 0 00-5.538.932l-.184.084a.022.022 0 00-.012.012l-.073.188c-1.55 3.925-1.99 10.588-1.52 14.762l.025.219.174.135a16.985 16.985 0 007.691 3.1l.263.033h.023a.187.187 0 00.174-.121l1.325-3.539a.186.186 0 00-.145-.249l-.407-.064a10.868 10.868 0 01-2.457-.682 9.138 9.138 0 01-2.667-1.67.045.045 0 01.028-.078h.016c.141.052.3.113.447.172a9.552 9.552 0 001.04.367 23.77 23.77 0 005.49.652V19.7v.032a23.745 23.745 0 005.485-.652 9.547 9.547 0 001.04-.367c.151-.059.306-.12.447-.172h.016a.045.045 0 01.028.078 9.1 9.1 0 01-2.663 1.663 10.921 10.921 0 01-2.46.681l-.406.064a.186.186 0 00-.146.249l1.325 3.548a.187.187 0 00.174.121h.023l.263-.033a16.985 16.985 0 007.691-3.1l.174-.135.029-.225c.469-4.174.029-10.837-1.52-14.763l-.072-.189a.023.023 0 00-.008-.01l-.184-.083a15.885 15.885 0 00-5.538-.932h-2.131a.023.023 0 00-.01.043l4.37 2.1a.021.021 0 01.012.025.022.022 0 01-.021.018h-.006a22.986 22.986 0 00-11.8 0h-.011a.022.022 0 01-.021-.018.021.021 0 01.013-.025L13.6 5.517a.022.022 0 00.013-.025.022.022 0 00-.022-.018zm8.259 10.863a2.615 2.615 0 01-1.082-.232 2.641 2.641 0 01-1.548-2.65 2.6 2.6 0 01.243-.89 2.667 2.667 0 011.256-1.256 2.6 2.6 0 01.89-.243c.08-.007.161-.011.241-.011a2.615 2.615 0 011.082.232 2.641 2.641 0 011.549 2.65 2.6 2.6 0 01-.243.89 2.667 2.667 0 01-1.256 1.256 2.6 2.6 0 01-.89.243 2.817 2.817 0 01-.242.011zm-9.13 0a2.615 2.615 0 01-1.083-.237 2.641 2.641 0 01-1.548-2.65 2.6 2.6 0 01.243-.89 2.667 2.667 0 011.256-1.256 2.6 2.6 0 01.89-.243c.08-.007.161-.011.241-.011a2.615 2.615 0 011.082.232 2.641 2.641 0 011.549 2.65 2.6 2.6 0 01-.243.89 2.667 2.667 0 01-1.256 1.256 2.6 2.6 0 01-.89.243c-.08.012-.157.016-.241.016z" data-name="Subtraction 83"/>
</svg>
