<svg xmlns="http://www.w3.org/2000/svg" xmlns:xlink="http://www.w3.org/1999/xlink" width="411" height="636" viewBox="0 0 411 636"><defs><linearGradient id="linear-gradient" x1="1" x2="0" y2="1" gradientUnits="objectBoundingBox"><stop offset="0" stop-color="#b6509e"/><stop offset="1" stop-color="#2ebac6"/></linearGradient><linearGradient id="linear-gradient-2" x1="0" y1=".858" x2="1.359" y2=".203" xlink:href="#linear-gradient"/><clipPath id="clip-path"><path id="Path_9888" data-name="Path 9888" class="cls-1" d="M0-61.271h375v600L0 479.011z" transform="translate(0 61.271)"/></clipPath><filter id="Path_9353" x="0" y="0" width="411" height="636" filterUnits="userSpaceOnUse"><feOffset dy="6"/><feGaussianBlur stdDeviation="6" result="blur"/><feFlood flood-opacity=".161"/><feComposite operator="in" in2="blur"/><feComposite in="SourceGraphic"/></filter><style>.cls-1{fill:url(#linear-gradient)}.cls-4{opacity:.5}.cls-5,.cls-6{fill:none;stroke:#fff;stroke-linecap:round;stroke-width:.5px}.cls-6{stroke-linejoin:round}</style></defs><g id="Group_29459" data-name="Group 29459" transform="translate(18 12)"><path id="Path_9356" data-name="Path 9356" d="M0 639.833v57.274l375-28.723z" transform="translate(0 -102.554)" fill="url(#linear-gradient-2)"/><g id="Group_29458" data-name="Group 29458"><g transform="translate(-18 -12)" filter="url(#Path_9353)"><path id="Path_9353-2" data-name="Path 9353" class="cls-1" d="M0-61.271h375v600L0 479.011z" transform="translate(18 73.27)"/></g><g id="Mask_Group_680" data-name="Mask Group 680" clip-path="url(#clip-path)" opacity=".5"><g id="Group_26035" data-name="Group 26035" transform="translate(2670 8674.534)"><g id="Group_25720" data-name="Group 25720" class="cls-4" transform="translate(-2670 -8142.333)"><path id="Path_7473" data-name="Path 7473" class="cls-5" d="M0 0l21.092 3.489" transform="translate(353.746 .055)"/><path id="Path_7484" data-name="Path 7484" class="cls-5" d="M21.092 0L0 3.489" transform="translate(.162 .055)"/><path id="Path_7462" data-name="Path 7462" class="cls-5" d="M0 0l48.892 186.059" transform="translate(194.7 .054)"/><path id="Path_7487" data-name="Path 7487" class="cls-5" d="M48.892 0L0 186.059" transform="translate(131.408 .054)"/><path id="Path_7463" data-name="Path 7463" class="cls-5" d="M0 0l146.7 186.279" transform="translate(209.177 .054)"/><path id="Path_7486" data-name="Path 7486" class="cls-5" d="M146.7 0L0 186.279" transform="translate(19.121 .054)"/><path id="Path_7464" data-name="Path 7464" class="cls-5" d="M0 0l151.079 115.053" transform="translate(223.687 .068)"/><path id="Path_7475" data-name="Path 7475" class="cls-5" d="M151.079 0L0 115.053" transform="translate(.234 .068)"/><path id="Path_7465" data-name="Path 7465" class="cls-5" d="M0 0l136.583 74.32" transform="translate(238.126 .054)"/><path id="Path_7476" data-name="Path 7476" class="cls-5" d="M136.583 0L0 74.32" transform="translate(.291 .054)"/><path id="Path_7466" data-name="Path 7466" class="cls-5" d="M122.264 51.659L0 0" transform="translate(252.472 .02)"/><path id="Path_7477" data-name="Path 7477" class="cls-5" d="M0 51.659L122.264 0" transform="translate(.264 .02)"/><path id="Path_7467" data-name="Path 7467" class="cls-5" d="M0 0l107.306 37.469" transform="translate(267.31 .02)"/><path id="Path_7478" data-name="Path 7478" class="cls-5" d="M107.306 0L0 37.469" transform="translate(.384 .021)"/><path id="Path_7468" data-name="Path 7468" class="cls-5" d="M0 0l93.2 27.14" transform="translate(281.802 .02)"/><path id="Path_7479" data-name="Path 7479" class="cls-5" d="M93.2 0L0 27.14" transform="translate(0 .02)"/><path id="Path_7469" data-name="Path 7469" class="cls-5" d="M0 0l78.627 20.1" transform="translate(296.191 .02)"/><path id="Path_7480" data-name="Path 7480" class="cls-5" d="M78.627 0L0 20.1" transform="translate(.182 .021)"/><path id="Path_7470" data-name="Path 7470" class="cls-5" d="M0 0l64.288 14.413" transform="translate(310.676 .068)"/><path id="Path_7481" data-name="Path 7481" class="cls-5" d="M64.288 0L0 14.413" transform="translate(.035 .068)"/><path id="Path_7471" data-name="Path 7471" class="cls-5" d="M0 0l49.741 10.04" transform="translate(325.175 .01)"/><path id="Path_7482" data-name="Path 7482" class="cls-5" d="M49.741 0L0 10.04" transform="translate(.083 .01)"/><path id="Path_7472" data-name="Path 7472" class="cls-5" d="M0 0l35.591 6.457" transform="translate(339.248)"/><path id="Path_7483" data-name="Path 7483" class="cls-5" d="M35.591 0L0 6.457" transform="translate(.161)"/><path id="Line_1" data-name="Line 1" class="cls-5" transform="translate(.121 172.98)" d="M0 0h374.762"/><path id="Line_2" data-name="Line 2" class="cls-5" transform="translate(.121 147.838)" d="M0 0h374.762"/><path id="Line_3" data-name="Line 3" class="cls-5" transform="translate(.121 125.542)" d="M0 0h374.762"/><path id="Line_4" data-name="Line 4" class="cls-5" transform="translate(.121 106.092)" d="M0 0h374.762"/><path id="Line_5" data-name="Line 5" class="cls-5" transform="translate(.121 89.015)" d="M0 0h374.762"/><path id="Line_6" data-name="Line 6" class="cls-5" transform="translate(.121 74.308)" d="M0 0h374.762"/><path id="Line_7" data-name="Line 7" class="cls-5" transform="translate(.121 57.115)" d="M0 0h374.762"/><path id="Line_9" data-name="Line 9" class="cls-5" transform="translate(.121 41.102)" d="M0 0h374.762"/><path id="Line_10" data-name="Line 10" class="cls-5" transform="translate(.121 33.512)" d="M0 0h374.762"/><path id="Line_11" data-name="Line 11" class="cls-5" transform="translate(.121 26.871)" d="M0 0h374.762"/><path id="Line_12" data-name="Line 12" class="cls-5" transform="translate(.121 21.178)" d="M0 0h374.762"/><path id="Line_13" data-name="Line 13" class="cls-5" transform="translate(.121 16.908)" d="M0 0h374.762"/><path id="Line_14" data-name="Line 14" class="cls-5" transform="translate(.121 13.114)" d="M0 0h374.762"/><path id="Line_15" data-name="Line 15" class="cls-5" transform="translate(.121 10.267)" d="M0 0h374.762"/><path id="Line_16" data-name="Line 16" class="cls-5" transform="translate(.121 7.421)" d="M0 0h374.762"/><path id="Line_17" data-name="Line 17" class="cls-5" transform="translate(.121 4.575)" d="M0 0h374.762"/><path id="Path_9368" data-name="Path 9368" class="cls-5" d="M0 0h374.762" transform="translate(.121 2.203)"/><path id="Path_9369" data-name="Path 9369" class="cls-5" d="M0 0h374.762" transform="translate(.121 .01)"/></g><g id="Group_25724" data-name="Group 25724" class="cls-4" transform="translate(-2602.276 -8224.715)"><g id="Group_25721" data-name="Group 25721" class="cls-4"><path id="Path_9362" data-name="Path 9362" class="cls-6" d="M-7185.931-5556.73l-40.034-45.1-22.035 22.304" transform="translate(7490.937 5601.832)"/><path id="Path_9363" data-name="Path 9363" class="cls-6" d="M-7127.794-5509.689l40.479-29.672 15.253 15.254 8.155-8.155 8.155 8.155h14.5l24.122-24.123 21.568 21.568 41.329-41.33 19.762 19.762 35.447-35.447 21.658 21.658-32.459 9" transform="translate(7127.794 5591.921)"/><path id="Path_9364" data-name="Path 9364" class="cls-6" d="M-7197.657-5572.612l-10.711-10.71-6.835 6.908-35.266 41.154-1.85-36.657 14.7-29.812 6.762 43.514 20.3-12.909 12.89 27.546-52.812 8.4 54.772 15.4" transform="translate(7502.663 5601.776)"/><path id="Path_9365" data-name="Path 9365" class="cls-6" d="M-6900.286-5495.637l13.381-13.381 9.543 9.542 1.264 27.917" transform="translate(7023.229 5551.159)"/><path id="Path_9366" data-name="Path 9366" class="cls-6" d="M-6983.021-5463.223l14.747 14.747 18.864-18.865 18.865 18.865" transform="translate(7115.238 5528.406)"/><path id="Path_9367" data-name="Path 9367" class="cls-6" d="M-7160.288-5505.914l27.292 27.293 7.609-7.61 10.215-10.214 26.86 27.017" transform="translate(7353.491 5549.465)"/><path id="Path_9370" data-name="Path 9370" class="cls-6" d="M-7072.922-5005.2l-10.946 30.3 20.47 14.318-37.573-2.16 17.1-12.158" transform="translate(7301.647 5013.662)"/><path id="Path_9371" data-name="Path 9371" class="cls-6" d="M-7008.6-4918.155l-5.567 26.9-12.252-9.069-14.291 9.069-60.26-28.23 47.563-8 12.7 36.231-34.516-32.523" transform="translate(7246.853 4971.229)"/><path id="Path_9372" data-name="Path 9372" class="cls-5" d="M-6868.487-4930.736l-8.118 18.939" transform="translate(7004.865 4973.005)"/><path id="Path_9373" data-name="Path 9373" class="cls-6" d="M-6820.375-4927.482l25.071 36.365-49.35-12.09-4.931 12.045-25.753-12.237 16.268-.023-10.968-5.292" transform="translate(6931.106 4971.229)"/><path id="Path_9374" data-name="Path 9374" class="cls-6" d="M-6691.553-4907.9l-25.689 27.319 49.234-8.036-33.241-8.7" transform="translate(6732.03 4960.537)"/></g><g id="Group_25722" data-name="Group 25722" transform="translate(4.022 2.27)"><path id="Path_9362-2" data-name="Path 9362" class="cls-6" d="M-7185.931-5556.73l-40.034-45.1-22.035 22.304" transform="translate(7489.185 5601.832)"/><path id="Path_9363-2" data-name="Path 9363" class="cls-6" d="M-7127.794-5511.964l38.964-27.525 15.236 15.209 8.146-8.132 8.146 8.132h14.482l24.095-24.053 21.544 21.506 41.282-41.21 19.74 19.7 35.406-35.345 21.634 21.595-32.421 8.974" transform="translate(7127.794 5591.921)"/><path id="Path_9364-2" data-name="Path 9364" class="cls-6" d="M-7193.339-5572.612l-10.711-10.71-6.835 6.908-35.266 41.154-1.85-36.657 14.706-29.812 6.762 43.514 20.3-12.909 12.89 27.546-52.812 8.4 52.813 13.334" transform="translate(7496.594 5601.776)"/><path id="Path_9365-2" data-name="Path 9365" class="cls-6" d="M-6900.286-5495.637l13.381-13.381 9.543 9.542 1.264 27.917" transform="translate(7021.478 5551.159)"/><path id="Path_9366-2" data-name="Path 9366" class="cls-6" d="M-6983.021-5463.223l14.747 14.747 18.864-18.865 18.865 18.865" transform="translate(7113.487 5528.406)"/><path id="Path_9367-2" data-name="Path 9367" class="cls-6" d="M-7160.288-5505.914l27.292 27.293 7.609-7.61 10.215-10.214 26.86 27.017" transform="translate(7351.74 5549.465)"/><path id="Path_9370-2" data-name="Path 9370" class="cls-6" d="M-7072.922-5005.2l-10.946 30.3 20.47 14.318-37.573-2.16 17.1-12.158" transform="translate(7299.896 5013.662)"/><path id="Path_9371-2" data-name="Path 9371" class="cls-6" d="M-7008.6-4918.155l-5.567 26.9-12.252-9.069-14.291 9.069-60.26-28.23 47.563-8 12.7 36.231-34.516-32.523" transform="translate(7245.101 4971.229)"/><path id="Path_9372-2" data-name="Path 9372" class="cls-5" d="M-6868.487-4930.736l-8.118 18.939" transform="translate(7003.114 4973.005)"/><path id="Path_9373-2" data-name="Path 9373" class="cls-6" d="M-6820.375-4927.482l25.071 36.365-49.35-12.09-4.931 12.045-25.753-12.237 16.268-.023-10.968-5.292" transform="translate(6929.354 4971.229)"/><path id="Path_9374-2" data-name="Path 9374" class="cls-6" d="M-6691.553-4907.9l-25.689 27.319 49.234-8.036-33.241-8.7" transform="translate(6730.278 4960.537)"/></g></g></g></g></g></g></svg>