<svg xmlns="http://www.w3.org/2000/svg" viewBox="0 0 40 40">
  <path fill="#fff" d="M20 40a20 20 0 0 1-7.79-38.43 20 20 0 0 1 15.57 36.86A19.87 19.87 0 0 1 20 40zm-.94-13.73l5.4 3.96a1.1 1.1 0 0 0 .66.22 1.13 1.13 0 0 0 1.1-.9l3.58-17.07a1.07 1.07 0 0 0-.75-1.26h-.04a1.05 1.05 0 0 0-.26-.03 1.08 1.08 0 0 0-.4.08L7.44 19.4a.76.76 0 0 0 .06 1.44l5.32 1.57 1.98 6.3a.9.9 0 0 0 .56.59l.07.02a.03.03 0 0 0 .01 0 .17.17 0 0 0 .03 0h.05a.59.59 0 0 0 .07.01.73.73 0 0 0 .09 0 .86.86 0 0 0 .24-.03.9.9 0 0 0 .13-.05.88.88 0 0 0 .13-.07.76.76 0 0 0 .06-.05 1.01 1.01 0 0 0 .09-.07l2.74-2.81z" data-name="Subtraction 69"/>
</svg>
